<?xml version="1.0" encoding="UTF-8"?> <svg xmlns="http://www.w3.org/2000/svg" id="Layer_1" data-name="Layer 1" viewBox="0 0 336 72"><defs><style>.cls-1{fill:#fff;}</style></defs><title>logo_agl_horizontal_white</title><rect class="cls-1" x="55.39502" y="18.6185" width="2.452" height="11.383"></rect><polygon class="cls-1" points="37.674 37.218 35.94 39.025 28.215 30.976 29.949 29.169 37.674 37.218"></polygon><rect class="cls-1" x="87.612" y="52.1265" width="10.92401" height="2.55603"></rect><rect class="cls-1" x="17.44202" y="52.1265" width="10.92401" height="2.55603"></rect><path class="cls-1" d="M58.16083,12.44571c-24.905,0-45.321,20.405-46.663,46.012h2.932c1.337-23.926,20.439-42.964,43.731-42.964s42.394,19.038,43.731,42.964h2.932c-1.342-25.607-21.758-46.012-46.663-46.012"></path><path class="cls-1" d="M60.968,59.178a4.35118,4.35118,0,1,0-4.348,4.53,4.4413,4.4413,0,0,0,4.348-4.53"></path><polygon class="cls-1" points="60.439 54.132 62.173 55.939 86.13 30.976 84.396 29.17 60.439 54.132"></polygon><rect class="cls-1" x="43.16803" y="34.09653" width="6.01999" height="6.27197"></rect><rect class="cls-1" x="50.13" y="34.09653" width="6.01901" height="6.27197"></rect><rect class="cls-1" x="57.09201" y="34.09653" width="6.01901" height="6.27197"></rect><rect class="cls-1" x="64.05304" y="34.09653" width="6.01999" height="6.27197"></rect><path class="cls-1" d="M125.3627,8.51273h2.232l9.62,22.152h-2.564l-2.473-5.813h-11.489l-2.503,5.813h-2.443Zm5.881,14.108-4.795-11.218-4.825,11.218Z"></path><path class="cls-1" d="M140.29053,21.45779V8.66885h2.383v12.632c0,4.745,2.412,7.415,6.453,7.415,3.889,0,6.362-2.451,6.362-7.25806V8.66885h2.382v12.6c0,6.411-3.527,9.741-8.805,9.741-5.217,0-8.775-3.33-8.775-9.552"></path><polygon class="cls-1" points="169.089 10.963 162.003 10.963 162.003 8.669 178.588 8.669 178.588 10.963 171.502 10.963 171.502 30.664 169.089 30.664 169.089 10.963"></polygon><path class="cls-1" d="M180.67,19.73v-.063c0-6.064,4.372-11.375,10.795-11.375,6.424,0,10.735,5.24805,10.735,11.312.031.032.031.032,0,.063,0,6.065-4.372,11.375-10.795,11.375-6.424,0-10.735-5.248-10.735-11.312m19.057,0v-.063c0-4.996-3.498-9.081-8.322-9.081s-8.263,4.022-8.263,9.018v.063c0,4.997,3.498,9.08,8.323,9.08s8.262-4.022,8.262-9.017"></path><polygon class="cls-1" points="207.237 8.669 209.649 8.669 217.339 20.672 225.029 8.669 227.442 8.669 227.442 30.664 225.059 30.664 225.059 12.848 217.369 24.631 217.249 24.631 209.559 12.88 209.559 30.664 207.237 30.664 207.237 8.669"></polygon><polygon class="cls-1" points="263.177 10.963 256.09 10.963 256.09 8.669 272.676 8.669 272.676 10.963 265.589 10.963 265.589 30.664 263.177 30.664 263.177 10.963"></polygon><rect class="cls-1" x="277.35004" y="8.66953" width="2.383" height="21.995"></rect><polygon class="cls-1" points="284.106 8.669 286.758 8.669 294.268 27.616 301.807 8.669 304.369 8.669 295.292 30.822 293.182 30.822 284.106 8.669"></polygon><polygon class="cls-1" points="308.532 8.669 323.792 8.669 323.792 10.931 310.915 10.931 310.915 18.442 322.434 18.442 322.434 20.703 310.915 20.703 310.915 28.401 323.942 28.401 323.942 30.664 308.532 30.664 308.532 8.669"></polygon><polygon class="cls-1" points="235.95 26.266 235.95 17.471 231.72 17.471 231.72 30.664 244.388 30.664 244.388 26.266 235.95 26.266"></polygon><polygon class="cls-1" points="252.826 8.669 231.724 8.669 231.724 15.267 235.945 15.267 235.945 13.086 248.606 13.086 248.606 26.266 246.499 26.266 246.499 30.664 252.826 30.664 252.826 8.669"></polygon><path class="cls-1" d="M116.84192,46.37234v-.062c0-5.923,4.175-11.168,10.393-11.168a10.66081,10.66081,0,0,1,7.728,2.869l-1.51,1.851a8.624,8.624,0,0,0-6.307-2.468c-4.589,0-7.876,4.041-7.876,8.855v.061c0,5.153,3.168,8.978,8.202,8.978a9.51236,9.51236,0,0,0,5.981-2.16v-5.368h-6.307v-2.19h8.558v8.608a12.28768,12.28768,0,0,1-8.321,3.301c-6.514,0-10.541-4.937-10.541-11.10706"></path><path class="cls-1" d="M139.19852,35.51242h8.912a7.97923,7.97923,0,0,1,5.893,2.16,6.10061,6.10061,0,0,1,1.598,4.257v.062c0,3.579-2.368,5.677-5.625,6.294l6.366,8.823h-2.873l-6.01-8.391h-5.922v8.391h-2.339Zm8.705,11.014c3.109,0,5.33-1.666,5.33-4.443v-.061c0-2.654-1.954-4.258-5.3-4.258h-6.396v8.762Z"></path><path class="cls-1" d="M168.27582,35.35757h2.191l9.446,21.751h-2.517l-2.428-5.707h-11.281l-2.458,5.707h-2.398Zm5.774,13.853-4.708-11.014-4.738,11.014Z"></path><path class="cls-1" d="M182.81522,35.51163h7.195c6.514,0,11.015,4.66,11.015,10.737v.062a10.5773,10.5773,0,0,1-11.015,10.798h-7.195Zm2.339,2.253v17.092h4.856a8.18142,8.18142,0,0,0,8.587-8.484v-.062a8.23041,8.23041,0,0,0-8.587-8.546Z"></path><polygon class="cls-1" points="204.194 35.512 219.177 35.512 219.177 37.734 206.533 37.734 206.533 45.107 217.844 45.107 217.844 47.328 206.533 47.328 206.533 54.887 219.325 54.887 219.325 57.109 204.194 57.109 204.194 35.512"></polygon><polygon class="cls-1" points="232.472 35.512 237.032 35.512 237.032 52.79 247.366 52.79 247.366 57.109 232.472 57.109 232.472 35.512"></polygon><rect class="cls-1" x="251.00903" y="35.51254" width="4.56" height="21.59698"></rect><polygon class="cls-1" points="260.751 35.512 264.956 35.512 274.668 48.81 274.668 35.512 279.168 35.512 279.168 57.109 275.289 57.109 265.252 43.379 265.252 57.109 260.751 57.109 260.751 35.512"></polygon><path class="cls-1" d="M283.81732,47.85312V35.51218h4.56v12.218c0,3.517,1.688,5.337,4.471,5.337s4.471-1.759,4.471-5.183V35.51218h4.56V47.69913c0,6.541-3.524,9.749-9.09,9.749-5.567,0-8.972-3.239-8.972-9.595"></path><polygon class="cls-1" points="324.206 35.512 317.277 46.063 324.502 57.109 319.172 57.109 314.524 49.704 309.845 57.109 304.663 57.109 311.888 46.126 304.96 35.512 310.289 35.512 314.612 42.516 319.024 35.512 324.206 35.512"></polygon></svg> 